# xmcd CD database file
#
# Track frame offsets:
#	151
#	14874
#	26428
#	40137
#	56036
#	75725
#	90177
#	105055
#	118283
#	134273
#	149678
#	162970
#	178618
#	199562
#	213745
#
# Disc length: 3034 seconds
#
# Revision: 2
# Processed by: cddbd v1.5.2PL0 Copyright (c) Steve Scherf et al.
# Submitted via: CDex 1.51
#
DISCID=cd0bd80f
DTITLE=Willie Nelson - Willie Nelson's Greatest Hits
DYEAR=2008
DGENRE=Country
TTITLE0=Sweet Memories
TTITLE1=Mona Lisa
TTITLE2=My Cricket and Me
TTITLE3=It's Not Supposed To Be That Way
TTITLE4=Georgia On My Mind
TTITLE5=So Much To Do
TTITLE6=No Reason To Quit
TTITLE7=Slow Down Old World
TTITLE8=Always On My Mind
TTITLE9=My Life's Been A Pleasure
TTITLE10=Not That I Care
TTITLE11=You Like Like The Devil
TTITLE12=Bridge Over Troubled Water
TTITLE13=Sad Songs And Waltzes
TTITLE14=There You Are
EXTD=YEAR: 2008
EXTT0=
EXTT1=
EXTT2=
EXTT3=
EXTT4=
EXTT5=
EXTT6=
EXTT7=
EXTT8=
EXTT9=
EXTT10=
EXTT11=
EXTT12=
EXTT13=
EXTT14=
PLAYORDER=
